<svg width="338" height="338" viewBox="0 0 338 338" xmlns="http://www.w3.org/2000/svg">
    <defs>
        <filter x="-1.7%" y="-1.8%" width="103.4%" height="103.5%" filterUnits="objectBoundingBox" id="tr7romxzra">
            <feOffset dy="2" in="SourceAlpha" result="shadowOffsetOuter1"/>
            <feGaussianBlur stdDeviation="2" in="shadowOffsetOuter1" result="shadowBlurOuter1"/>
            <feColorMatrix values="0 0 0 0 0 0 0 0 0 0 0 0 0 0 0 0 0 0 0.104212194 0" in="shadowBlurOuter1" result="shadowMatrixOuter1"/>
            <feMerge>
                <feMergeNode in="shadowMatrixOuter1"/>
                <feMergeNode in="SourceGraphic"/>
            </feMerge>
        </filter>
    </defs>
    <g filter="url(#tr7romxzra)" transform="translate(-181 -207)" fill="none" fill-rule="evenodd">
        <path d="M452.8 458.069c0 23.583-36.826 37.931-102.402 37.931C287.85 496 248 481.652 248 458.069c0-2.493.222-10.794.222-10.794 10.165-14.827 53.27-22.01 102.176-22.01 48.742 0 91.823 8.307 102.164 22.177 0 0 .238 8.359.238 10.627" fill="#FF9210"/>
        <path d="M452.8 449.48c0 23.582-36.826 37.931-102.402 37.931-62.548 0-102.398-14.349-102.398-37.932 0-18.433 45.845-32.802 102.398-32.802 56.554 0 102.402 16.39 102.402 32.802" fill="#FFB92C"/>
        <path d="m338.294 257.628-62.046 189.668s13.116 20.715 71.628 20.715c65.576 0 76.676-20.715 76.676-20.715l-62.046-189.668h-24.212z" fill="#FF9210"/>
        <path d="m390.566 343.402-6.96-21.275c-9.598 1.554-21.353 2.55-35.73 2.55-12.104 0-22.261-.888-30.766-2.294l-6.95 21.238c9.76 2.158 22.124 3.63 37.716 3.63 18.06 0 31.985-1.572 42.69-3.849M407.576 395.411l-8.156-24.94c-11.506 3.418-28.018 6.084-51.544 6.084-20.736 0-35.768-2.603-46.534-5.962l-8.122 24.818c10.87 4.666 28.08 8.94 54.656 8.94 29.785 0 48.332-4.274 59.7-8.94M347.876 433.654c-34.607 0-53.334-7.247-62.858-13.168l-8.77 26.81s13.116 20.715 71.628 20.715c65.576 0 76.676-20.715 76.676-20.715l-8.727-26.68c-9.724 5.896-29.444 13.038-67.949 13.038M347.876 295.373c10.084 0 18.88-.49 26.546-1.32l-11.916-36.425h-24.212l-12 36.684c6.396.671 13.564 1.06 21.582 1.06" fill="#FF9210"/>
        <path d="M441.117 478.173a39.692 39.692 0 0 0 2.921-2.33c-.786.765-1.794 1.553-2.92 2.33m10.923-14.423c.276-1.004.48-2.029.602-3.072-.05.72-.203 1.764-.602 3.072m.755-5.473c.004-.069.004-.14.004-.208 0-1.153-.061-3.88-.123-6.282.054-.502.088-1.011.108-1.522.375 3.165.18 6.319.011 8.012M436.68 432.56a73.059 73.059 0 0 0-1.66-.81c.587.272 1.143.543 1.66.81m-19.21-7.293a18.645 18.645 0 0 1-.138-.04l-1.506-4.61-53.319-162.988 54.963 167.638" fill="#F1D1AD"/>
        <path d="M428.622 484.923v-8.589c14.73-6.04 22.982-14.368 24.055-24.547.062 2.402.123 5.129.123 6.282 0 .069 0 .14-.004.208-.077.797-.146 1.27-.146 1.27s.046.398-.007 1.13a20.696 20.696 0 0 1-.602 3.073c-.89 2.93-3.009 7.183-7.984 12.073-.007.006-.015.013-.019.02a39.692 39.692 0 0 1-2.92 2.33c-5.06 3.485-12.496 6.75-12.496 6.75" fill="#F18910"/>
        <path d="m428.622 476.334-35.246-12.802c25.737-6.09 31.176-16.236 31.176-16.236l-7.221-22.07.138.04c.855.325 11.046 3.469 17.55 6.484.568.268 1.12.537 1.66.809l.004.001c6.163 3.19 9.923 5.691 13.767 10.81 1.361 1.807 2.032 4.355 2.335 6.895-.02.51-.054 1.02-.108 1.522-1.073 10.179-9.325 18.508-24.055 24.547" fill="#F1A222"/>
        <path d="m355.14 257.83 7.366-.202 11.916 36.426 9.184 28.073 6.96 21.275 8.854 27.068 6.27 19.174 10.135 30.972 1.506 4.61 7.221 22.07s-5.33 9.943-30.41 16.052l-.766.183-6.148-33.059-5.278-28.413-5.04-27.109-5.34-28.73-4.131-22.228-5.385-28.968-6.915-37.194z" fill="#F18910"/>
        <path d="M323.308 375.153a142.176 142.176 0 0 1-11.944-1.968 595.79 595.79 0 0 0 8.908-27.74c2.771.396 5.703.738 8.808 1.014-1.434 5.648-2.714 11.327-3.707 17.072-.666 3.863-1.215 7.794-2.065 11.622m11.889-50.824a186.413 186.413 0 0 1-8.946-.719c.276-1.083.548-2.17.817-3.255 2.046-8.268 3.077-17.247 5.404-25.503 3.154.223 6.477.38 9.977.46-1.874 9.795-4.52 19.415-7.252 29.017" fill="#FFBE70"/>
        <path d="M329.08 346.46a166.24 166.24 0 0 1-8.808-1.015 597.072 597.072 0 0 0 5.98-21.835c2.828.298 5.81.541 8.945.72-2.093 7.364-4.235 14.72-6.117 22.13M314.147 390.142c-2.66 0-4.929-2.597-5.377-5.299-.483-2.898.532-5.812 1.514-8.581.364-1.025.724-2.05 1.08-3.077 3.622.763 7.593 1.432 11.944 1.968-.798 3.574-1.86 7.06-3.53 10.315-1.085 2.116-2.699 4.294-5.048 4.632-.196.028-.391.042-.583.042M342.449 295.312c-3.5-.08-6.823-.237-9.977-.46.295-1.059.617-2.106.962-3.138 1.257-3.749 3.254-5.356 5.075-5.356 2.679 0 4.982 3.488 3.978 8.76-.011.064-.023.129-.038.194" fill="#FFBE70"/>
        <path d="M295.937 477.457c-.1 0-.199-.001-.299-.004-13.323-.412-26.423-5.964-35.994-15.256-3.104-3.015-5.968-7.032-3.932-11.48.939-2.053 2.932-3.527 5.028-3.527 1.047 0 2.124.37 3.101 1.225 2.507 2.194 1.859 7.754 4.078 10.811 2.38 3.28 5.96 5.674 9.682 7.176 6.14 2.477 12.874 3.1 19.134 5.257 1.709.59 3.717 1.859 3.372 3.64-.322 1.68-2.414 2.158-4.17 2.158" fill="#FFD580"/>
        <path d="M362.56 257.628c0 .9-5.443 1.628-12.162 1.628-6.715 0-12.162-.729-12.162-1.628 0-.899 5.447-1.628 12.162-1.628 6.719 0 12.162.729 12.162 1.628" fill="#FFB92C"/>
        <path d="m333.231 422.96 1.634 5.672.062.009 3.112-5.004 4.435.623-6.232 9.452-.803 5.716-4.228-.594.804-5.716-3.405-10.807 4.621.65zm-25.311-3.621c3.421.48 5.283 2.774 4.76 6.498-.51 3.629-3.208 5.305-6.357 4.863l-2.016-.284-.63 4.484-4.304-.605 2.227-15.844 6.32.888zm10.122 2.162 1.486 6.78-4.284 7.974-4.82-.677 7.618-14.077zm6.601-.271 3.619 16.665-5.067-.712-2.273-10.526-1.327-6.137 5.048.71zm-17.788 1.877-1.49-.21-.531 3.772 1.491.21c1.05.147 1.763-.357 1.943-1.638.177-1.258-.342-1.984-1.413-2.134zm2.93 13.072-1.664 11.836 5.709.802-.564 4.009-9.902-1.392 2.226-15.844 4.195.59zm33.671 13.31c1.812.544 2.69 2.143 2.417 4.088-.35 2.49-2.156 4.171-5.507 3.7l-6.993-.982 2.227-15.844 6.972.98c2.768.388 4.096 2.268 3.736 4.83-.277 1.968-1.423 3.017-2.845 3.18l-.007.047zm-4.652-1.938 1.582.223c.937.132 1.502-.273 1.639-1.244.14-.997-.245-1.583-1.181-1.714l-1.623-.229-.417 2.964zm-.813 5.788 1.914.27c1.04.146 1.569-.288 1.705-1.26.134-.949-.29-1.564-1.288-1.705l-1.915-.269-.416 2.964zm-15.949-13.838 1.486 6.78-4.284 7.974-4.82-.677 7.618-14.077zm6.601-.271 3.619 16.665-5.067-.712-2.273-10.526-1.327-6.137 5.048.71z" fill="#FEFEFE"/>
    </g>
</svg>
