<svg width="338" height="338" viewBox="0 0 338 338" xmlns="http://www.w3.org/2000/svg" xmlns:xlink="http://www.w3.org/1999/xlink">
    <defs>
        <filter x="-1.7%" y="-1.8%" width="103.4%" height="103.5%" filterUnits="objectBoundingBox" id="nueb5hbula">
            <feOffset dy="2" in="SourceAlpha" result="shadowOffsetOuter1"/>
            <feGaussianBlur stdDeviation="2" in="shadowOffsetOuter1" result="shadowBlurOuter1"/>
            <feColorMatrix values="0 0 0 0 0 0 0 0 0 0 0 0 0 0 0 0 0 0 0.104212194 0" in="shadowBlurOuter1" result="shadowMatrixOuter1"/>
            <feMerge>
                <feMergeNode in="shadowMatrixOuter1"/>
                <feMergeNode in="SourceGraphic"/>
            </feMerge>
        </filter>
        <path id="u8hhvoqbeb" d="m160 235.97-5.427-5.429 40.373-29.518L160 235.969"/>
    </defs>
    <g filter="url(#nueb5hbula)" transform="translate(-181 -183)" fill="none" fill-rule="evenodd">
        <path d="M408.135 312.516c-.767 0-1.528.028-2.282.08-2.55-14.812-15.455-26.081-30.994-26.081a31.312 31.312 0 0 0-18.928 6.332c-5.692-10.04-16.474-16.816-28.84-16.816-18.297 0-33.13 14.833-33.13 33.13 0 1.16.06 2.305.177 3.434a33.52 33.52 0 0 0-2.273-.08c-18.298 0-33.13 14.834-33.13 33.13 0 18.298 14.832 33.131 33.13 33.131h116.27c18.298 0 33.13-14.833 33.13-33.13 0-18.297-14.832-33.13-33.13-33.13" fill="#AAD0E2"/>
        <path d="M408.135 312.516c-.767 0-1.528.028-2.282.08-2.55-14.812-15.455-26.081-30.994-26.081a31.312 31.312 0 0 0-18.928 6.332c-5.692-10.04-16.474-16.816-28.84-16.816-18.297 0-33.13 14.833-33.13 33.13 0 1.16.06 2.305.177 3.434a33.52 33.52 0 0 0-2.273-.08c-18.298 0-33.13 14.834-33.13 33.13 0 18.298 14.832 33.131 33.13 33.131h116.27c18.298 0 33.13-14.833 33.13-33.13 0-18.297-14.832-33.13-33.13-33.13" fill="#B3D5E3"/>
        <path d="M340.536 283.375a31.927 31.927 0 0 0-9.733-1.51c-17.656 0-31.969 14.312-31.969 31.969 0 1.119.058 2.224.17 3.313a32.471 32.471 0 0 0-2.193-.076c-17.656 0-31.97 14.313-31.97 31.97a31.8 31.8 0 0 0 4.246 15.923c-1.22-14.424.963-41.964 35.537-41.29-.353-9.417 1.316-38.941 35.912-40.3" fill="#C3DEE8"/>
        <path d="M307.885 378.776h100.25c18.298 0 33.13-14.833 33.13-33.13 0-3.907-.681-7.655-1.923-11.135-21.785 42.903-95.46 39.106-131.457 44.265" fill="#A5C7DD"/>
        <path d="M368.807 393.023h16.14L350 427.969l-34.946-34.946h16.14v-41.799h37.613v41.799z" fill="#425563"/>
        <g transform="translate(190 192)">
            <use fill="#425563" xlink:href="#u8hhvoqbeb"/>
            <use fill-opacity=".297" fill="#000" xlink:href="#u8hhvoqbeb"/>
        </g>
    </g>
</svg>
