<svg width="776" height="380" viewBox="0 0 776 380" xmlns="http://www.w3.org/2000/svg" xmlns:xlink="http://www.w3.org/1999/xlink">
    <defs>
        <path id="m92v89hena" d="M0 0h776v379.999H0z"/>
    </defs>
    <g fill="none" fill-rule="evenodd" opacity=".15">
        <mask id="r1wuz1a59b" fill="#fff">
            <use xlink:href="#m92v89hena"/>
        </mask>
        <g mask="url(#r1wuz1a59b)" stroke="#415563" stroke-linejoin="round" stroke-width="1.848">
            <path d="M1.21 383.722h26.814l13.407-31.89-13.407-31.89zM54.838 319.942H28.024l13.407 31.89 13.407 31.89h26.816zM81.657 383.722h26.816l13.407-31.89-13.407-31.89zM135.287 319.942h-26.814l13.407 31.89 13.407 31.89h26.814zM162.103 383.722h26.817l13.407-31.89-13.407-31.89z"/>
            <path d="M215.734 319.942H188.92l13.407 31.89 13.407 31.89h26.813zM242.55 383.722h26.816l13.407-31.89-13.407-31.89z"/>
            <path d="M296.18 319.942h-26.814l13.407 31.89 13.407 31.89h26.814zM322.997 383.722h26.816l13.407-31.89-13.407-31.89z"/>
            <path d="M376.627 319.942h-26.814l13.407 31.89 13.407 31.89h26.813zM403.443 383.722h26.816l13.407-31.89-13.407-31.89zM457.073 319.942H430.26l13.407 31.89 13.407 31.89h26.817zM483.892 383.722h26.814l13.407-31.89-13.407-31.89z"/>
            <path d="M537.52 319.942h-26.814l13.407 31.89 13.407 31.89h26.816zM564.339 383.722h26.813l13.407-31.89-13.407-31.89z"/>
            <path d="M617.966 319.942h-26.814l13.407 31.89 13.407 31.89h26.817zM644.785 383.722H671.6l13.407-31.89-13.407-31.89z"/>
            <path d="M698.413 319.942h-26.814l13.407 31.89 13.407 31.89h26.816zM725.232 383.722h26.816l13.407-31.89-13.407-31.89z"/>
            <path d="M778.862 319.942h-26.814l13.407 31.89 13.407 31.89h26.814zM162.103 256.17h26.817l13.407-31.89-13.407-31.887z"/>
            <path d="M215.734 192.393H188.92l13.407 31.887 13.407 31.89h26.813zM242.55 256.17h26.816l13.407-31.89-13.407-31.887z"/>
            <path d="M296.18 192.393h-26.814l13.407 31.887 13.407 31.89h26.814zM322.997 256.17h26.816l13.407-31.89-13.407-31.887z"/>
            <path d="M376.627 192.393h-26.814l13.407 31.887 13.407 31.89h26.813zM403.443 256.17h26.816l13.407-31.89-13.407-31.887zM457.073 192.393H430.26l13.407 31.887 13.407 31.89h26.817zM483.892 256.17h26.814l13.407-31.89-13.407-31.887z"/>
            <path d="M537.52 192.393h-26.814l13.407 31.887 13.407 31.89h26.816zM564.339 256.17h26.813l13.407-31.89-13.407-31.887z"/>
            <path d="M617.966 192.393h-26.814l13.407 31.887 13.407 31.89h26.817zM644.785 256.17H671.6l13.407-31.89-13.407-31.887z"/>
            <path d="M698.413 192.393h-26.814l13.407 31.887 13.407 31.89h26.816zM725.232 256.17h26.816l13.407-31.89-13.407-31.887z"/>
            <path d="M778.862 192.393h-26.814l13.407 31.887 13.407 31.89h26.814zM322.997 128.618h26.816l13.407-31.887-13.407-31.89z"/>
            <path d="M376.627 64.841h-26.814l13.407 31.89 13.407 31.887h26.813zM403.443 128.618h26.816l13.407-31.887-13.407-31.89zM457.073 64.841H430.26l13.407 31.89 13.407 31.887h26.817zM483.892 128.618h26.814l13.407-31.887-13.407-31.89z"/>
            <path d="M537.52 64.841h-26.814l13.407 31.89 13.407 31.887h26.816zM564.339 128.618h26.813l13.407-31.887-13.407-31.89z"/>
            <path d="M617.966 64.841h-26.814l13.407 31.89 13.407 31.887h26.817zM644.785 128.618H671.6l13.407-31.887-13.407-31.89z"/>
            <path d="M698.413 64.841h-26.814l13.407 31.89 13.407 31.887h26.816zM725.232 128.618h26.816l13.407-31.887-13.407-31.89z"/>
            <path d="M778.862 64.841h-26.814l13.407 31.89 13.407 31.887h26.814zM108.473 319.945h26.817l13.407-31.888-13.407-31.89z"/>
            <path d="M162.103 256.167H135.29l13.407 31.89 13.406 31.888h26.814zM188.92 319.945h26.816l13.407-31.888-13.407-31.89zM242.55 256.167h-26.814l13.407 31.89 13.407 31.888h26.814zM269.366 319.945h26.817l13.407-31.888-13.407-31.89zM322.997 256.167h-26.814l13.407 31.89 13.407 31.888h26.813zM349.813 319.945h26.816l13.407-31.888-13.407-31.89zM403.443 256.167h-26.814l13.407 31.89 13.407 31.888h26.816zM430.262 319.945h26.814l13.407-31.888-13.407-31.89z"/>
            <path d="M483.89 256.167h-26.814l13.407 31.89 13.407 31.888h26.816zM510.709 319.945h26.813l13.407-31.888-13.407-31.89zM564.336 256.167h-26.814l13.407 31.89 13.407 31.888h26.816zM591.155 319.945h26.814l13.407-31.888-13.407-31.89zM644.783 256.167h-26.814l13.407 31.89 13.407 31.888h26.816zM671.602 319.945h26.813l13.407-31.888-13.407-31.89zM725.232 256.167h-26.817l13.407 31.89 13.41 31.888h26.814zM752.048 319.945h26.817l13.406-31.888-13.406-31.89zM188.92 192.395h26.816l13.407-31.89-13.407-31.89z"/>
            <path d="M242.55 128.616h-26.814l13.407 31.89 13.407 31.89h26.814zM269.366 192.395h26.817l13.407-31.89-13.407-31.89z"/>
            <path d="M322.997 128.616h-26.814l13.407 31.89 13.407 31.89h26.813zM349.813 192.395h26.816l13.407-31.89-13.407-31.89z"/>
            <path d="M403.443 128.616h-26.814l13.407 31.89 13.407 31.89h26.816zM430.262 192.395h26.814l13.407-31.89-13.407-31.89z"/>
            <path d="M483.89 128.616h-26.814l13.407 31.89 13.407 31.89h26.816zM510.709 192.395h26.813l13.407-31.89-13.407-31.89z"/>
            <path d="M564.336 128.616h-26.814l13.407 31.89 13.407 31.89h26.816zM591.155 192.395h26.814l13.407-31.89-13.407-31.89z"/>
            <path d="M644.783 128.616h-26.814l13.407 31.89 13.407 31.89h26.816zM671.602 192.395h26.813l13.407-31.89-13.407-31.89z"/>
            <path d="M725.232 128.616h-26.817l13.407 31.89 13.41 31.89h26.814zM752.048 192.395h26.817l13.406-31.89-13.406-31.89zM430.262 64.844h26.814l13.407-31.89-13.407-31.887z"/>
            <path d="M483.89 1.067h-26.814l13.407 31.887 13.407 31.89h26.816zM510.709 64.844h26.813l13.407-31.89-13.407-31.887z"/>
            <path d="M564.336 1.067h-26.814l13.407 31.887 13.407 31.89h26.816zM671.602 64.844h26.813l13.407-31.89-13.407-31.887z"/>
            <path d="M725.232 1.067h-26.817l13.407 31.887 13.41 31.89h26.814zM752.048 64.844h26.817l13.406-31.89-13.406-31.887z"/>
        </g>
    </g>
</svg>
